<svg width="333" height="179" viewBox="0 0 333 179" fill="none" xmlns="http://www.w3.org/2000/svg">
<path d="M373.535 -155.174L373.692 -155.649L373.535 -155.174C371.447 -155.864 367.127 -156.485 361.069 -157.024C355.033 -157.56 347.325 -158.011 338.5 -158.374C320.851 -159.1 298.75 -159.477 276.652 -159.499C254.553 -159.521 232.461 -159.189 214.829 -158.499C206.013 -158.153 198.316 -157.718 192.292 -157.194C186.248 -156.668 181.944 -156.055 179.873 -155.37C172.762 -153.017 164.497 -147.739 157.112 -141.279C149.727 -134.82 143.27 -127.221 139.743 -120.264C138.378 -117.573 137.363 -115.465 136.577 -112.478C135.788 -109.482 135.224 -105.584 134.792 -99.3243C133.928 -86.7994 133.6 -64.928 133.012 -22.134L132.005 51.226C131.878 60.5263 129.689 69.709 125.569 78.2377C117.659 94.613 106.423 105.523 89.5687 113.203C80.8166 117.19 71.1685 119.328 61.3603 119.455L-13.764 120.428L-18.5015 120.489C-65.6996 121.099 -89.2321 121.402 -103.282 123.614C-110.517 124.753 -115.201 126.393 -119.293 128.825C-123.141 131.113 -126.484 134.109 -130.953 138.116C-131.256 138.387 -131.564 138.663 -131.878 138.944C-137.79 144.237 -145.096 153.44 -148.097 159.354C-149.439 161.999 -150.438 164.097 -151.214 167.089C-151.993 170.089 -152.552 174.006 -152.981 180.28C-153.839 192.833 -154.172 214.714 -154.757 257.346L-155.764 330.706C-155.892 340.007 -158.081 349.189 -162.2 357.718C-170.111 374.093 -181.346 385.004 -198.201 392.683C-206.949 396.669 -216.611 398.759 -226.416 398.79L-954.16 401.033C-962.524 401.059 -970.752 402.919 -978.13 406.448C-985.296 409.876 -993.122 416.148 -999.772 423.32C-1006.42 430.493 -1011.86 438.517 -1014.28 445.418C-1014.96 447.369 -1015.58 451.501 -1016.11 457.342C-1016.64 463.159 -1017.08 470.612 -1017.44 479.158C-1018.14 496.25 -1018.5 517.698 -1018.5 539.149C-1018.5 560.599 -1018.14 582.047 -1017.44 599.139C-1017.08 607.685 -1016.64 615.138 -1016.11 620.955C-1015.58 626.796 -1014.96 630.929 -1014.28 632.879C-1011.86 639.781 -1006.42 647.805 -999.772 654.978C-993.122 662.149 -985.296 668.421 -978.13 671.849C-975.359 673.175 -973.186 674.161 -970.106 674.926C-967.018 675.693 -963.001 676.241 -956.555 676.661C-943.657 677.5 -921.135 677.818 -877.073 678.389L-801.948 679.362C-792.14 679.489 -782.492 681.626 -773.74 685.614C-756.885 693.294 -745.65 704.204 -737.739 720.579C-733.62 729.108 -731.431 738.291 -731.303 747.591L-730.296 820.951C-729.709 863.745 -729.381 885.616 -728.517 898.141C-728.085 904.401 -727.521 908.299 -726.732 911.295C-725.945 914.282 -724.931 916.39 -723.566 919.081C-720.532 925.066 -712.748 934.615 -706.285 940.259C-705.103 941.291 -704.038 942.259 -703.039 943.166C-699.445 946.431 -696.699 948.925 -692.41 950.884C-686.93 953.388 -678.916 955.013 -663.443 956.054C-635.841 957.911 -584.722 957.899 -482.422 957.875C-470.054 957.872 -456.939 957.869 -443.027 957.869C-429.114 957.869 -415.999 957.872 -403.632 957.875C-301.332 957.899 -250.212 957.911 -222.61 956.054C-207.137 955.013 -199.123 953.388 -193.643 950.884C-189.354 948.925 -186.609 946.431 -183.014 943.166C-182.015 942.258 -180.95 941.291 -179.768 940.259C-173.305 934.615 -165.521 925.066 -162.487 919.081C-161.122 916.39 -160.108 914.282 -159.321 911.295C-158.532 908.299 -157.968 904.401 -157.536 898.141C-156.673 885.616 -156.345 863.745 -155.757 820.951L-154.75 747.591C-154.622 738.291 -152.434 729.108 -148.314 720.579C-140.404 704.204 -129.168 693.294 -112.313 685.614C-103.567 681.629 -93.9 679.553 -84.0971 679.553H61.3523C71.1553 679.553 80.8221 681.629 89.5687 685.614C106.423 693.294 117.659 704.204 125.569 720.579C129.689 729.108 131.878 738.291 132.005 747.591L133.012 820.951C133.6 863.745 133.928 885.616 134.792 898.141C135.224 904.401 135.788 908.299 136.577 911.295C137.363 914.282 138.378 916.39 139.743 919.081L139.297 919.307L139.743 919.081C142.776 925.066 150.561 934.615 157.024 940.259C161.999 944.604 165.845 947.847 170.34 950.293C174.826 952.734 179.983 954.394 187.579 955.52C202.806 957.776 227.711 957.869 276.397 957.869C326.674 957.869 351.915 957.837 367.259 955.233C374.909 953.934 380.066 952.001 384.627 949.126C389.203 946.241 393.199 942.397 398.528 937.222C399.969 935.823 401.313 934.585 402.562 933.436L402.63 933.374C403.855 932.247 404.987 931.206 406.038 930.173C408.175 928.071 409.963 926.015 411.474 923.387C414.499 918.126 416.451 910.502 417.691 895.52C419.854 869.37 419.834 821.056 419.794 724.366C419.788 710.263 419.782 695.131 419.782 678.889C419.782 665.376 419.785 652.637 419.788 640.625C419.813 541.273 419.826 491.629 417.914 464.824C416.842 449.798 415.168 442.021 412.593 436.705C410.577 432.543 408.012 429.878 404.65 426.388C403.716 425.417 402.719 424.382 401.656 423.234C395.845 416.958 386.012 409.396 379.846 406.448L380.061 405.997L379.846 406.448C377.075 405.123 374.902 404.136 371.822 403.371C368.734 402.604 364.718 402.056 358.271 401.637C345.373 400.798 322.851 400.479 278.789 399.908L203.665 398.936C193.856 398.809 184.208 396.671 175.456 392.683C158.602 385.004 147.366 374.093 139.456 357.718C135.337 349.193 133.212 339.996 133.212 330.698V188.638C133.212 179.341 135.337 170.144 139.456 161.619C147.366 145.243 158.602 134.333 175.456 126.654C184.208 122.666 193.856 120.528 203.665 120.401L278.789 119.428C322.851 118.858 345.373 118.539 358.271 117.7C364.717 117.281 368.734 116.732 371.822 115.965C374.902 115.2 377.075 114.214 379.846 112.888C387.012 109.461 394.838 103.188 401.488 96.0173C408.14 88.8441 413.572 80.8201 415.992 73.9187L416.464 74.084L415.992 73.9186C416.672 71.9822 417.28 67.8281 417.801 61.9383C418.319 56.0724 418.746 48.5453 419.083 39.9082C419.757 22.6348 420.069 0.940369 420.028 -20.7449C419.986 -42.4301 419.59 -64.1007 418.85 -81.3262C418.48 -89.9396 418.023 -97.4367 417.482 -103.267C416.939 -109.122 416.315 -113.232 415.63 -115.119L416.1 -115.289L415.63 -115.119C413.015 -122.318 406.322 -131.074 398.329 -138.681C390.338 -146.286 381.126 -152.667 373.535 -155.174Z" stroke="url(#paint0_linear_4914_6368)"/>
<defs>
<linearGradient id="paint0_linear_4914_6368" x1="502.061" y1="-241.364" x2="-25.7996" y2="379.717" gradientUnits="userSpaceOnUse">
<stop stop-color="#1D1D1D"/>
<stop offset="1" stop-color="#1D1D1D" stop-opacity="0"/>
</linearGradient>
</defs>
</svg>
