<svg width="332" height="175" viewBox="0 0 332 175" fill="none" xmlns="http://www.w3.org/2000/svg">
<path d="M372.413 -151.696L372.567 -152.172L372.413 -151.696C370.33 -152.371 366.022 -152.978 359.983 -153.505C353.965 -154.03 346.28 -154.47 337.481 -154.825C319.885 -155.535 297.85 -155.903 275.818 -155.925C253.786 -155.947 231.76 -155.622 214.181 -154.947C205.391 -154.609 197.717 -154.184 191.712 -153.671C185.685 -153.157 181.393 -152.557 179.328 -151.887L179.174 -152.363L179.328 -151.887C172.237 -149.587 163.997 -144.427 156.634 -138.112C149.272 -131.797 142.836 -124.368 139.32 -117.569C137.959 -114.938 136.948 -112.879 136.165 -109.96C135.379 -107.033 134.816 -103.224 134.386 -97.1045C133.525 -84.8602 133.198 -63.4784 132.612 -21.6404L131.608 50.0804C131.48 59.1761 129.298 68.1563 125.189 76.4964C117.301 92.5092 106.097 103.176 89.2942 110.684C80.5689 114.582 70.9507 116.672 61.1732 116.796L-13.7255 117.747L-18.4477 117.807C-65.5045 118.402 -88.9674 118.699 -102.976 120.862C-110.19 121.975 -114.86 123.579 -118.94 125.957C-122.777 128.194 -126.109 131.123 -130.565 135.04C-130.867 135.305 -131.175 135.575 -131.487 135.85C-137.381 141.024 -144.664 150.02 -147.655 155.8C-148.993 158.386 -149.989 160.436 -150.762 163.359C-151.538 166.29 -152.095 170.118 -152.523 176.252C-153.379 188.524 -153.71 209.915 -154.294 251.595L-155.298 323.315C-155.425 332.411 -157.608 341.391 -161.716 349.731C-169.604 365.744 -180.808 376.411 -197.611 383.919C-206.332 387.815 -215.965 389.859 -225.738 389.888L-951.297 392.082C-959.637 392.107 -967.842 393.925 -975.198 397.376C-982.343 400.727 -990.145 406.86 -996.775 413.87C-1003.41 420.883 -1008.82 428.726 -1011.23 435.47C-1011.91 437.374 -1012.53 441.412 -1013.06 447.123C-1013.59 452.81 -1014.03 460.095 -1014.38 468.451C-1015.09 485.16 -1015.44 506.128 -1015.44 527.099C-1015.44 548.07 -1015.09 569.039 -1014.38 585.748C-1014.03 594.103 -1013.59 601.389 -1013.06 607.076C-1012.53 612.786 -1011.91 616.824 -1011.23 618.729C-1008.82 625.473 -1003.41 633.316 -996.775 640.329C-990.145 647.339 -982.343 653.472 -975.198 656.823C-972.435 658.119 -970.268 659.083 -967.197 659.831C-964.118 660.581 -960.113 661.117 -953.686 661.527C-940.826 662.348 -918.372 662.659 -874.442 663.217L-799.543 664.168C-789.765 664.292 -780.147 666.382 -771.422 670.28C-754.619 677.788 -743.415 688.455 -735.527 704.468C-731.419 712.808 -729.236 721.788 -729.109 730.883L-728.104 802.604C-727.519 844.442 -727.192 865.824 -726.33 878.068C-725.9 884.188 -725.338 887.997 -724.552 890.924C-723.768 893.843 -722.757 895.902 -721.396 898.533C-718.373 904.382 -710.613 913.717 -704.17 919.235C-702.991 920.244 -701.929 921.19 -700.933 922.077C-697.349 925.269 -694.612 927.707 -690.336 929.622C-684.872 932.07 -676.881 933.66 -661.454 934.678C-633.934 936.493 -582.965 936.481 -480.966 936.458C-468.639 936.455 -455.566 936.452 -441.699 936.452C-427.829 936.452 -414.754 936.455 -402.425 936.458C-300.43 936.481 -249.464 936.493 -221.944 934.677C-206.517 933.66 -198.526 932.07 -193.062 929.622C-188.786 927.707 -186.048 925.269 -182.465 922.077C-181.469 921.19 -180.407 920.244 -179.228 919.235C-172.785 913.717 -165.025 904.382 -162.002 898.533C-160.641 895.902 -159.63 893.843 -158.846 890.924C-158.06 887.997 -157.498 884.188 -157.068 878.068C-156.206 865.824 -155.88 844.442 -155.294 802.604L-154.289 730.883C-154.162 721.788 -151.979 712.808 -147.871 704.467C-139.983 688.455 -128.779 677.788 -111.976 670.28C-103.256 666.384 -93.6196 664.355 -83.8474 664.355H61.1653C70.9377 664.355 80.5744 666.384 89.2943 670.28C106.097 677.788 117.301 688.455 125.189 704.467C129.298 712.808 131.48 721.788 131.608 730.883L132.612 802.604C133.198 844.442 133.525 865.824 134.386 878.068C134.816 884.188 135.379 887.997 136.165 890.924C136.948 893.843 137.959 895.902 139.32 898.533L138.876 898.763L139.32 898.533C142.343 904.382 150.103 913.717 156.547 919.235C161.507 923.482 165.341 926.653 169.823 929.045C174.296 931.432 179.437 933.055 187.012 934.155C202.194 936.36 227.024 936.452 275.565 936.452C325.69 936.452 350.856 936.421 366.155 933.874C373.782 932.605 378.925 930.714 383.472 927.903C388.034 925.083 392.018 921.325 397.331 916.265C398.768 914.898 400.107 913.688 401.353 912.564L401.414 912.51C402.638 911.405 403.769 910.386 404.818 909.374C406.948 907.32 408.731 905.31 410.236 902.742C413.25 897.602 415.197 890.151 416.432 875.505C418.589 849.941 418.569 802.708 418.529 708.177C418.523 694.39 418.517 679.596 418.517 663.717C418.517 650.506 418.52 638.052 418.523 626.308C418.548 529.176 418.561 480.643 416.654 454.438C415.586 439.748 413.918 432.148 411.352 426.953C409.343 422.886 406.786 420.283 403.435 416.87C402.503 415.921 401.51 414.909 400.449 413.786C394.656 407.651 384.853 400.259 378.705 397.376L378.917 396.923L378.705 397.376C375.943 396.08 373.776 395.116 370.705 394.368C367.625 393.618 363.62 393.082 357.193 392.672C344.333 391.851 321.879 391.54 277.949 390.982L203.05 390.031C193.273 389.907 183.655 387.817 174.929 383.919C158.126 376.411 146.923 365.744 139.034 349.731C134.928 341.394 132.807 332.4 132.807 323.307V184.422C132.807 175.329 134.928 166.335 139.034 157.998C146.923 141.985 158.126 131.318 174.929 123.81C183.655 119.912 193.273 117.822 203.05 117.698L277.949 116.747C321.879 116.189 344.333 115.878 357.193 115.057C363.62 114.647 367.625 114.111 370.705 113.361C373.776 112.613 375.943 111.649 378.705 110.353C385.85 107.002 393.652 100.869 400.282 93.8593C406.914 86.8465 412.328 79.0033 414.74 72.259L415.21 72.4272L414.74 72.259C415.417 70.3685 416.023 66.3097 416.542 60.5511C417.059 54.8169 417.485 47.4583 417.821 39.0143C418.493 22.1274 418.804 0.918015 418.762 -20.2825C418.72 -41.483 418.326 -62.669 417.588 -79.5092C417.219 -87.9299 416.764 -95.2591 416.225 -100.958C415.683 -106.683 415.061 -110.699 414.379 -112.541L414.846 -112.714L414.379 -112.541C411.773 -119.575 405.102 -128.134 397.133 -135.571C389.166 -143.006 379.982 -149.245 372.413 -151.696Z" stroke="url(#paint0_linear_4914_6373)"/>
<defs>
<linearGradient id="paint0_linear_4914_6373" x1="500.55" y1="-235.971" x2="-13.7909" y2="381.176" gradientUnits="userSpaceOnUse">
<stop stop-color="#1D1D1D"/>
<stop offset="1" stop-color="#1D1D1D" stop-opacity="0"/>
</linearGradient>
</defs>
</svg>
