<svg width="335" height="179" viewBox="0 0 335 179" fill="none" xmlns="http://www.w3.org/2000/svg">
<path d="M375.778 -155.174L375.934 -155.647L375.778 -155.174C373.677 -155.864 369.33 -156.485 363.236 -157.024C357.163 -157.56 349.409 -158.011 340.531 -158.374C322.776 -159.1 300.542 -159.477 278.311 -159.499C256.079 -159.521 233.855 -159.189 216.117 -158.499C207.247 -158.153 199.504 -157.718 193.445 -157.194C187.364 -156.668 183.033 -156.055 180.95 -155.369L180.793 -155.844L180.95 -155.369C173.794 -153.016 165.48 -147.738 158.05 -141.278C150.621 -134.819 144.125 -127.219 140.576 -120.263C139.203 -117.572 138.183 -115.464 137.392 -112.477C136.598 -109.482 136.03 -105.584 135.596 -99.3241C134.727 -86.7993 134.397 -64.928 133.806 -22.134L132.793 51.2261C132.664 60.5268 130.463 69.7098 126.318 78.2387C118.36 94.6143 107.057 105.524 90.1021 113.203C81.2981 117.191 71.5928 119.328 61.7265 119.455L-13.849 120.428L-18.6154 120.489C-66.0964 121.099 -89.7708 121.402 -103.905 123.614C-111.185 124.753 -115.897 126.393 -120.014 128.826C-123.886 131.114 -127.249 134.11 -131.745 138.117C-132.05 138.388 -132.36 138.665 -132.676 138.945C-138.623 144.238 -145.973 153.441 -148.992 159.355C-150.342 162 -151.347 164.098 -152.128 167.089C-152.911 170.09 -153.474 174.006 -153.905 180.28C-154.768 192.833 -155.103 214.714 -155.692 257.346L-156.705 330.706C-156.834 340.007 -159.035 349.19 -163.18 357.719C-171.138 374.095 -182.441 385.005 -199.396 392.684C-208.196 396.669 -217.915 398.759 -227.778 398.79L-959.893 401.033C-968.308 401.059 -976.586 402.919 -984.009 406.449C-991.219 409.877 -999.092 416.15 -1005.78 423.321C-1012.47 430.494 -1017.94 438.518 -1020.37 445.419C-1021.06 447.369 -1021.68 451.502 -1022.22 457.342C-1022.75 463.159 -1023.2 470.612 -1023.55 479.159C-1024.26 496.25 -1024.62 517.698 -1024.62 539.149C-1024.62 560.599 -1024.26 582.047 -1023.55 599.139C-1023.2 607.685 -1022.75 615.138 -1022.22 620.955C-1021.68 626.795 -1021.06 630.928 -1020.37 632.878C-1017.94 639.779 -1012.47 647.803 -1005.78 654.977C-999.092 662.148 -991.219 668.421 -984.009 671.849C-981.221 673.174 -979.035 674.161 -975.936 674.926C-972.829 675.693 -968.788 676.241 -962.302 676.661C-949.327 677.5 -926.67 677.818 -882.343 678.389L-806.767 679.362C-796.901 679.489 -787.196 681.626 -778.392 685.614C-761.437 693.293 -750.134 704.203 -742.176 720.578C-738.031 729.107 -735.829 738.29 -735.701 747.591L-734.688 820.951C-734.096 863.745 -733.767 885.616 -732.897 898.141C-732.463 904.401 -731.896 908.299 -731.102 911.294C-730.311 914.281 -729.291 916.389 -727.917 919.08C-724.865 925.065 -717.035 934.614 -710.532 940.258C-709.344 941.29 -708.272 942.258 -707.267 943.165C-703.651 946.43 -700.888 948.924 -696.573 950.884C-691.06 953.387 -682.996 955.013 -667.43 956.054C-639.662 957.911 -588.236 957.899 -485.321 957.875C-472.88 957.872 -459.686 957.869 -445.69 957.869C-431.694 957.869 -418.5 957.872 -406.058 957.875C-303.144 957.899 -251.717 957.911 -223.949 956.054C-208.383 955.013 -200.32 953.387 -194.806 950.884C-190.491 948.924 -187.729 946.43 -184.112 943.165C-183.107 942.257 -182.036 941.29 -180.847 940.258C-174.345 934.614 -166.514 925.065 -163.462 919.08C-162.089 916.389 -161.069 914.281 -160.277 911.294C-159.484 908.299 -158.916 904.401 -158.482 898.141C-157.613 885.616 -157.283 863.745 -156.692 820.951L-155.679 747.591C-155.55 738.29 -153.348 729.107 -149.204 720.578C-141.246 704.203 -129.943 693.293 -112.988 685.614C-104.189 681.629 -94.4654 679.553 -84.6045 679.553H61.7186C71.5796 679.553 81.3036 681.629 90.1021 685.614C107.057 693.293 118.36 704.203 126.318 720.578C130.463 729.107 132.664 738.29 132.793 747.591L133.806 820.951C134.397 863.745 134.727 885.616 135.596 898.141C136.031 904.401 136.598 908.299 137.392 911.294C138.183 914.281 139.203 916.389 140.576 919.08L140.131 919.307L140.576 919.08C143.628 925.065 151.459 934.614 157.961 940.258C162.967 944.603 166.836 947.846 171.359 950.293C175.872 952.734 181.06 954.394 188.702 955.52C204.021 957.776 229.076 957.869 278.055 957.869C328.634 957.869 354.027 957.837 369.464 955.233C377.16 953.934 382.349 952 386.937 949.125C391.541 946.24 395.562 942.396 400.923 937.22C402.372 935.822 403.724 934.584 404.981 933.435L405.044 933.377C406.279 932.249 407.419 931.206 408.477 930.172C410.627 928.07 412.426 926.014 413.946 923.386C416.989 918.125 418.953 910.501 420.2 895.519C422.377 869.37 422.357 821.056 422.316 724.366C422.31 710.263 422.304 695.131 422.304 678.889C422.304 665.376 422.307 652.637 422.31 640.625C422.335 541.273 422.348 491.629 420.424 464.825C419.346 449.799 417.663 442.022 415.072 436.706C413.044 432.544 410.463 429.88 407.082 426.389C406.141 425.418 405.139 424.383 404.069 423.235C398.223 416.959 388.331 409.397 382.127 406.449L382.342 405.997L382.127 406.449C379.34 405.123 377.153 404.137 374.054 403.372C370.947 402.604 366.906 402.056 360.421 401.637C347.445 400.798 324.788 400.479 280.461 399.908L204.886 398.936C195.019 398.809 185.314 396.671 176.51 392.684C159.555 385.005 148.252 374.095 140.294 357.719C136.151 349.193 134.012 339.996 134.012 330.698V188.638C134.012 179.34 136.151 170.143 140.294 161.618C148.252 145.242 159.555 134.332 176.51 126.653C185.314 122.666 195.019 120.528 204.886 120.401L280.461 119.428C324.788 118.858 347.445 118.539 360.421 117.7C366.906 117.281 370.947 116.732 374.054 115.965C377.153 115.2 379.34 114.214 382.127 112.888C389.337 109.46 397.21 103.187 403.9 96.0162C410.593 88.8428 416.057 80.8189 418.492 73.9178L418.963 74.0842L418.492 73.9177C419.175 71.9817 419.787 67.8278 420.311 61.938C420.832 56.0723 421.262 48.5452 421.601 39.9081C422.279 22.6348 422.593 0.940353 422.551 -20.7449C422.509 -42.4301 422.111 -64.1006 421.366 -81.3261C420.994 -89.9394 420.535 -97.4365 419.991 -103.266C419.444 -109.121 418.816 -113.231 418.127 -115.118L418.597 -115.289L418.127 -115.118C415.496 -122.316 408.764 -131.073 400.722 -138.68C392.683 -146.285 383.415 -152.667 375.778 -155.174Z" stroke="url(#paint0_linear_4914_6383)"/>
<defs>
<linearGradient id="paint0_linear_4914_6383" x1="505.074" y1="-241.364" x2="-22.268" y2="382.833" gradientUnits="userSpaceOnUse">
<stop stop-color="#1D1D1D"/>
<stop offset="1" stop-color="#1D1D1D" stop-opacity="0"/>
</linearGradient>
</defs>
</svg>
